{"accessors" : [{"bufferView" : 0, "byteOffset" : 0, "componentType" : 5123, "count" : 3684, "type" : "SCALAR", "max" : [3683], "min" : [0]}, {"bufferView" : 1, "byteOffset" : 0, "componentType" : 5126, "count" : 3684, "type" : "VEC3", "max" : [0.999829113483429, 0.9991334080696106, 1.0009301900863647], "min" : [-1.0001885890960693, -1.0017833709716797, -0.9818867444992065], "name" : "POSITION"}, {"bufferView" : 1, "byteOffset" : 12, "componentType" : 5126, "count" : 3684, "type" : "VEC3", "max" : [0.9997950196266174, 0.9997792840003967, 1.0000044107437134], "min" : [-0.9986720085144043, -0.9983326196670532, -0.9733264446258545], "name" : "NORMAL"}, {"bufferView" : 1, "byteOffset" : 24, "componentType" : 5126, "count" : 3684, "type" : "VEC2", "max" : [1.0000001192092896, -0.0608716681599617], "min" : [8.940696716308594E-08, -0.9870749711990356], "name" : "TEXCOORD_0"}, {"bufferView" : 0, "byteOffset" : 7368, "componentType" : 5123, "count" : 2565, "type" : "SCALAR", "max" : [2564], "min" : [0]}, {"bufferView" : 2, "byteOffset" : 0, "componentType" : 5126, "count" : 2565, "type" : "VEC3", "max" : [1.0460973978042603, 1.0396809577941895, 1.0391769409179688], "min" : [-1.0424513816833496, -1.0562149286270142, -0.916206955909729], "name" : "POSITION"}, {"bufferView" : 2, "byteOffset" : 12, "componentType" : 5126, "count" : 2565, "type" : "VEC3", "max" : [0.9968060851097107, 0.9823939800262451, 0.9888802170753479], "min" : [-0.9602797627449036, -0.9877588748931885, -0.8251264691352844], "name" : "NORMAL"}, {"bufferView" : 2, "byteOffset" : 24, "componentType" : 5126, "count" : 2565, "type" : "VEC2", "max" : [0.9992101192474365, -0.17286233603954315], "min" : [0.002230448881164193, -0.9606784582138062], "name" : "TEXCOORD_0"}, {"bufferView" : 0, "byteOffset" : 12500, "componentType" : 5123, "count" : 5421, "type" : "SCALAR", "max" : [5420], "min" : [0]}, {"bufferView" : 3, "byteOffset" : 0, "componentType" : 5126, "count" : 5421, "type" : "VEC3", "max" : [1.0460973978042603, 1.0396809577941895, 1.0391769409179688], "min" : [-1.0424513816833496, -1.0562149286270142, -0.9818867444992065], "name" : "POSITION"}, {"bufferView" : 3, "byteOffset" : 12, "componentType" : 5126, "count" : 5421, "type" : "VEC3", "max" : [0.9969990849494934, 0.9975103735923767, 1.0000044107437134], "min" : [-0.996575653553009, -0.9984119534492493, -0.9917668700218201], "name" : "NORMAL"}, {"bufferView" : 3, "byteOffset" : 24, "componentType" : 5126, "count" : 5421, "type" : "VEC2", "max" : [0.9992101192474365, -0.0608716681599617], "min" : [1.1920928955078125E-07, -0.9606784582138062], "name" : "TEXCOORD_0"}, {"bufferView" : 0, "byteOffset" : 23344, "componentType" : 5123, "count" : 498, "type" : "SCALAR", "max" : [497], "min" : [0]}, {"bufferView" : 4, "byteOffset" : 0, "componentType" : 5126, "count" : 498, "type" : "VEC3", "max" : [0.36853307485580444, 0.4113941490650177, -0.8757662773132324], "min" : [-0.39067327976226807, -0.4481832981109619, -1.0673469305038452], "name" : "POSITION"}, {"bufferView" : 4, "byteOffset" : 12, "componentType" : 5126, "count" : 498, "type" : "VEC3", "max" : [0.9820148348808289, 0.9668935537338257, 0.429425448179245], "min" : [-0.9992034435272217, -0.9986096024513245, -0.9995933771133423], "name" : "NORMAL"}, {"bufferView" : 4, "byteOffset" : 24, "componentType" : 5126, "count" : 498, "type" : "VEC2", "max" : [0.9985775947570801, -0.00755406403914094], "min" : [0.006240673363208771, -0.16005276143550873], "name" : "TEXCOORD_0"}], "asset" : {"generator" : "Aspose.3D 23.9.0", "version" : "2.0"}, "buffers" : [{"uri" : "data:application/octet-stream;base64,", "byteLength" : 413736}], "bufferViews" : [{"buffer" : 0, "byteOffset" : 0, "byteLength" : 24340, "target" : 34963}, {"buffer" : 0, "byteOffset" : 24344, "byteLength" : 117888, "byteStride" : 32, "target" : 34962}, {"buffer" : 0, "byteOffset" : 142236, "byteLength" : 82080, "byteStride" : 32, "target" : 34962}, {"buffer" : 0, "byteOffset" : 224320, "byteLength" : 173472, "byteStride" : 32, "target" : 34962}, {"buffer" : 0, "byteOffset" : 397796, "byteLength" : 15936, "byteStride" : 32, "target" : 34962}], "cameras" : [{"perspective" : {"aspectRatio" : 1.5, "yfov" : 0.6911112070083618, "zfar" : 100000, "znear" : 10.000000149011612}, "type" : "perspective", "name" : "Camera"}], "materials" : [{"name" : "Material.009", "pbrMetallicRoughness" : {"baseColorFactor" : [0.006216820329427719, 0.37804681062698364, 0.6827744245529175, 1], "metallicFactor" : 0, "roughnessFactor" : 0}, "emissiveFactor" : [0, 0, 0], "alphaMode" : "OPAQUE", "doubleSided" : false}, {"name" : "Material.008", "pbrMetallicRoughness" : {"baseColorFactor" : [0.04057749733328819, 0.8162760734558105, 0.11648337543010712, 1], "metallicFactor" : 0, "roughnessFactor" : 0}, "emissiveFactor" : [0, 0, 0], "alphaMode" : "OPAQUE", "doubleSided" : false}, {"name" : "Material.010", "pbrMetallicRoughness" : {"baseColorFactor" : [0.05683440342545509, 0.24227656424045563, 0.10035599768161774, 1], "metallicFactor" : 0, "roughnessFactor" : 0}, "emissiveFactor" : [0, 0, 0], "alphaMode" : "OPAQUE", "doubleSided" : false}, {"name" : "Material.005", "pbrMetallicRoughness" : {"baseColorFactor" : [0.6434436440467834, 0.759128212928772, 0.805510401725769, 1], "metallicFactor" : 0, "roughnessFactor" : 0}, "emissiveFactor" : [0, 0, 0], "alphaMode" : "OPAQUE", "doubleSided" : false}], "meshes" : [{"primitives" : [{"attributes" : {"POSITION" : 1, "NORMAL" : 2, "TEXCOORD_0" : 3}, "indices" : 0, "material" : 0, "mode" : 4}, {"attributes" : {"POSITION" : 5, "NORMAL" : 6, "TEXCOORD_0" : 7}, "indices" : 4, "material" : 1, "mode" : 4}, {"attributes" : {"POSITION" : 9, "NORMAL" : 10, "TEXCOORD_0" : 11}, "indices" : 8, "material" : 2, "mode" : 4}, {"attributes" : {"POSITION" : 13, "NORMAL" : 14, "TEXCOORD_0" : 15}, "indices" : 12, "material" : 3, "mode" : 4}], "name" : "Sphere.002"}], "nodes" : [{"matrix" : [-64.2673415110832, 0.08809889153840321, -76.61397427155904, 0, -76.61395191254647, -0.21195777964018725, 64.26707902372463, 0, -0.1057706945160898, 99.99973656207781, 0.20371567249938705, 0, 0, 0, 0, 1], "mesh" : 0, "name" : "Sphere"}, {"camera" : 0, "matrix" : [64.33689703605381, -35.631253933011116, 67.75823897366618, 0, 23.752823133343135, 93.43128531403995, 26.578183603127286, 0, -72.77754477463552, -1.0050841104780464, 68.5742290224494, 0, -376.41156005859375, 212.6060791015625, -393.10565185546875, 1], "name" : "Camera"}], "scene" : 0, "scenes" : [{"nodes" : [0, 1]}]}